<?xml version="1.0" standalone="no"?>
<!DOCTYPE svg PUBLIC "-//W3C//DTD SVG 1.1//EN" "http://www.w3.org/Graphics/SVG/1.1/DTD/svg11.dtd">
<svg width="462" height="462" viewBox="-231 -231 462 462" xmlns="http://www.w3.org/2000/svg" version="1.1">
<title>OpenSCAD Model</title>
<path d="
M 28.86,221.26 L 48.1,221.26 L 48.1,230.842 L 144.3,230.842 L 144.3,221.26 L 163.54,221.26
 L 163.54,230.842 L 212.848,230.842 L 215.245,230.539 L 217.585,229.938 L 219.832,229.049 L 221.949,227.885
 L 223.904,226.465 L 225.665,224.811 L 227.205,222.949 L 228.5,220.909 L 229.529,218.723 L 230.276,216.425
 L 230.728,214.051 L 230.88,211.64 L 230.88,-211.64 L 230.728,-214.051 L 230.276,-216.425 L 229.529,-218.723
 L 228.5,-220.909 L 227.205,-222.949 L 225.665,-224.811 L 223.904,-226.465 L 221.949,-227.885 L 219.832,-229.049
 L 217.585,-229.938 L 215.245,-230.539 L 212.848,-230.842 L 163.54,-230.842 L 163.54,-221.26 L 144.3,-221.26
 L 144.3,-230.842 L 48.1,-230.842 L 48.1,-221.26 L 28.86,-221.26 L 28.86,-230.842 L -212.848,-230.842
 L -215.245,-230.539 L -217.585,-229.938 L -219.832,-229.049 L -221.949,-227.885 L -223.904,-226.465 L -225.665,-224.811
 L -227.205,-222.949 L -228.5,-220.909 L -229.529,-218.723 L -230.276,-216.425 L -230.728,-214.051 L -230.88,-211.64
 L -230.88,211.64 L -230.728,214.051 L -230.276,216.425 L -229.529,218.723 L -228.5,220.909 L -227.205,222.949
 L -225.665,224.811 L -223.904,226.465 L -221.949,227.885 L -219.832,229.049 L -217.585,229.938 L -215.245,230.539
 L -212.848,230.842 L 28.86,230.842 z
M -63.492,-163.54 L -51.948,-163.54 L -51.948,-144.3 L -63.492,-144.3 z
M -121.212,-144.3 L -121.212,-163.54 L -109.668,-163.54 L -109.668,-144.3 z
M 28.86,-128.908 L 28.86,-140.452 L 48.1,-140.452 L 48.1,-128.908 z
M 144.3,-128.908 L 144.3,-140.452 L 163.54,-140.452 L 163.54,-128.908 z
M -5.77199,-105.82 L -5.77199,-125.06 L 5.77199,-125.06 L 5.77199,-105.82 z
M -63.492,-105.82 L -63.492,-125.06 L -51.948,-125.06 L -51.948,-105.82 z
M -121.212,-105.82 L -121.212,-125.06 L -109.668,-125.06 L -109.668,-105.82 z
M -121.212,-67.34 L -121.212,-86.58 L -109.668,-86.58 L -109.668,-67.34 z
M -63.492,-67.34 L -63.492,-86.58 L -51.948,-86.58 L -51.948,-67.34 z
M -5.77199,-67.34 L -5.77199,-86.58 L 5.77199,-86.58 L 5.77199,-67.34 z
M -173.881,-73.1802 L -174.798,-73.4782 L -175.613,-73.9951 L -176.273,-74.6982 L -176.738,-75.5435 L -176.978,-76.4777
 L -176.978,-77.4423 L -176.738,-78.3765 L -176.273,-79.2218 L -175.613,-79.9249 L -174.798,-80.4418 L -173.881,-80.7398
 L -172.918,-80.8004 L -171.971,-80.6197 L -171.098,-80.209 L -170.355,-79.5941 L -169.788,-78.8138 L -169.433,-77.917
 L -169.312,-76.96 L -169.433,-76.003 L -169.788,-75.1062 L -170.355,-74.3259 L -171.098,-73.711 L -171.971,-73.3003
 L -172.918,-73.1196 z
M -121.212,-28.86 L -121.212,-48.1 L -109.668,-48.1 L -109.668,-28.86 z
M -63.492,-28.86 L -63.492,-48.1 L -51.948,-48.1 L -51.948,-28.86 z
M -5.77199,-28.86 L -5.77199,-48.1 L 5.77199,-48.1 L 5.77199,-28.86 z
M 194.324,19.24 L 194.324,-19.24 L 213.564,-19.24 L 213.564,19.24 z
M -121.212,48.1 L -121.212,28.86 L -109.668,28.86 L -109.668,48.1 z
M -63.492,48.1 L -63.492,28.86 L -51.948,28.86 L -51.948,48.1 z
M -5.77199,48.1 L -5.77199,28.86 L 5.77199,28.86 L 5.77199,48.1 z
M -121.212,86.58 L -121.212,67.34 L -109.668,67.34 L -109.668,86.58 z
M -63.492,86.58 L -63.492,67.34 L -51.948,67.34 L -51.948,86.58 z
M -5.77199,86.58 L -5.77199,67.34 L 5.77199,67.34 L 5.77199,86.58 z
M -173.881,80.7398 L -174.798,80.4418 L -175.613,79.9249 L -176.273,79.2218 L -176.738,78.3765 L -176.978,77.4423
 L -176.978,76.4777 L -176.738,75.5435 L -176.273,74.6982 L -175.613,73.9951 L -174.798,73.4782 L -173.881,73.1802
 L -172.918,73.1196 L -171.971,73.3003 L -171.098,73.711 L -170.355,74.3259 L -169.788,75.1062 L -169.433,76.003
 L -169.312,76.96 L -169.433,77.917 L -169.788,78.8138 L -170.355,79.5941 L -171.098,80.209 L -171.971,80.6197
 L -172.918,80.8004 z
M -5.77199,125.06 L -5.77199,105.82 L 5.77199,105.82 L 5.77199,125.06 z
M -121.212,125.06 L -121.212,105.82 L -109.668,105.82 L -109.668,125.06 z
M -63.492,125.06 L -63.492,105.82 L -51.948,105.82 L -51.948,125.06 z
M 144.3,140.452 L 144.3,128.908 L 163.54,128.908 L 163.54,140.452 z
M 28.86,140.452 L 28.86,128.908 L 48.1,128.908 L 48.1,140.452 z
M -5.77199,163.54 L -5.77199,144.3 L 5.77199,144.3 L 5.77199,163.54 z
M -63.492,163.54 L -63.492,144.3 L -51.948,144.3 L -51.948,163.54 z
M -121.212,163.54 L -121.212,144.3 L -109.668,144.3 L -109.668,163.54 z
M 5.77199,-163.54 L 5.77199,-144.3 L -5.77199,-144.3 L -5.77199,-163.54 z
" stroke="black" fill="lightgray" stroke-width="0.5"/></svg>
