<?xml version="1.0" standalone="no"?>
<!DOCTYPE svg PUBLIC "-//W3C//DTD SVG 1.1//EN" "http://www.w3.org/Graphics/SVG/1.1/DTD/svg11.dtd">
<svg width="462" height="462" viewBox="-231 -231 462 462" xmlns="http://www.w3.org/2000/svg" version="1.1">
<title>OpenSCAD Model</title>
<path d="
M 144.3,221.26 L 163.54,221.26 L 163.54,230.842 L 212.848,230.842 L 215.245,230.539 L 217.585,229.938
 L 219.832,229.049 L 221.949,227.885 L 223.904,226.465 L 225.665,224.811 L 227.205,222.949 L 228.5,220.909
 L 229.529,218.723 L 230.276,216.425 L 230.728,214.051 L 230.88,211.64 L 230.88,-211.64 L 230.728,-214.051
 L 230.276,-216.425 L 229.529,-218.723 L 228.5,-220.909 L 227.205,-222.949 L 225.665,-224.811 L 223.904,-226.465
 L 221.949,-227.885 L 219.832,-229.049 L 217.585,-229.938 L 215.245,-230.539 L 212.848,-230.842 L 163.54,-230.842
 L 163.54,-221.26 L 144.3,-221.26 L 144.3,-230.842 L -212.848,-230.842 L -215.245,-230.539 L -217.585,-229.938
 L -219.832,-229.049 L -221.949,-227.885 L -223.904,-226.465 L -225.665,-224.811 L -227.205,-222.949 L -228.5,-220.909
 L -229.529,-218.723 L -230.276,-216.425 L -230.728,-214.051 L -230.88,-211.64 L -230.88,211.64 L -230.728,214.051
 L -230.276,216.425 L -229.529,218.723 L -228.5,220.909 L -227.205,222.949 L -225.665,224.811 L -223.904,226.465
 L -221.949,227.885 L -219.832,229.049 L -217.585,229.938 L -215.245,230.539 L -212.848,230.842 L 144.3,230.842
 z
M 144.3,-128.908 L 144.3,-140.452 L 163.54,-140.452 L 163.54,-128.908 z
M -154.641,-73.1802 L -155.558,-73.4782 L -156.373,-73.9951 L -157.033,-74.6982 L -157.498,-75.5435 L -157.738,-76.4777
 L -157.738,-77.4423 L -157.498,-78.3765 L -157.033,-79.2218 L -156.373,-79.9249 L -155.558,-80.4418 L -154.641,-80.7398
 L -153.678,-80.8004 L -152.731,-80.6197 L -151.858,-80.209 L -151.115,-79.5941 L -150.548,-78.8138 L -150.193,-77.917
 L -150.072,-76.96 L -150.193,-76.003 L -150.548,-75.1062 L -151.115,-74.3259 L -151.858,-73.711 L -152.731,-73.3003
 L -153.678,-73.1196 z
M -154.641,80.7398 L -155.558,80.4418 L -156.373,79.9249 L -157.033,79.2218 L -157.498,78.3765 L -157.738,77.4423
 L -157.738,76.4777 L -157.498,75.5435 L -157.033,74.6982 L -156.373,73.9951 L -155.558,73.4782 L -154.641,73.1802
 L -153.678,73.1196 L -152.731,73.3003 L -151.858,73.711 L -151.115,74.3259 L -150.548,75.1062 L -150.193,76.003
 L -150.072,76.96 L -150.193,77.917 L -150.548,78.8138 L -151.115,79.5941 L -151.858,80.209 L -152.731,80.6197
 L -153.678,80.8004 z
M 144.3,140.452 L 144.3,128.908 L 163.54,128.908 L 163.54,140.452 z
" stroke="black" fill="lightgray" stroke-width="0.5"/></svg>
